<?xml version="1.0" encoding="UTF-8"?>
<!DOCTYPE svg PUBLIC "-//W3C//DTD SVG 1.1//EN" "http://www.w3.org/Graphics/SVG/1.1/DTD/svg11.dtd">
<svg xmlns="http://www.w3.org/2000/svg" version="1.1" width="600px" height="600px" style="shape-rendering:geometricPrecision; text-rendering:geometricPrecision; image-rendering:optimizeQuality; fill-rule:evenodd; clip-rule:evenodd" xmlns:xlink="http://www.w3.org/1999/xlink">
<g><path style="opacity:1" fill="#18181b" d="M 268.5,-0.5 C 289.167,-0.5 309.833,-0.5 330.5,-0.5C 444.647,15.4847 526.481,75.4847 576,179.5C 588.219,208.455 596.052,238.455 599.5,269.5C 599.5,289.5 599.5,309.5 599.5,329.5C 585.248,437.533 530.248,517.366 434.5,569C 401.408,584.909 366.741,595.076 330.5,599.5C 309.833,599.5 289.167,599.5 268.5,599.5C 154.353,583.515 72.5195,523.515 23,419.5C 10.9349,390.828 3.10155,361.162 -0.5,330.5C -0.5,309.833 -0.5,289.167 -0.5,268.5C 13.7953,162.731 67.462,83.8973 160.5,32C 194.649,14.6794 230.649,3.84607 268.5,-0.5 Z"/></g>
<g><path style="opacity:1" fill="#fdfdfd" d="M 172.5,274.5 C 170.444,282.445 170.111,290.445 171.5,298.5C 171.687,302.229 173.353,304.896 176.5,306.5C 182.822,302.695 189.489,299.529 196.5,297C 228.946,291.139 251.779,303.306 265,333.5C 273.264,364.041 264.764,388.874 239.5,408C 198.32,428.386 164.82,419.552 139,381.5C 125.266,355.036 120.933,327.036 126,297.5C 135.517,250.618 160.684,214.785 201.5,190C 218.417,179.373 236.417,171.207 255.5,165.5C 255.808,171.425 255.475,177.259 254.5,183C 211.107,199.221 183.773,229.721 172.5,274.5 Z"/></g>
<g><path style="opacity:1" fill="#fdfdfd" d="M 437.5,165.5 C 438.489,170.975 438.822,176.642 438.5,182.5C 393.787,199.719 365.954,231.719 355,278.5C 354.333,285.833 354.333,293.167 355,300.5C 355.912,304.77 358.412,306.604 362.5,306C 375.579,296.065 390.246,292.732 406.5,296C 435.201,304.746 450.201,324.08 451.5,354C 450.934,377.465 440.934,395.798 421.5,409C 380.224,427.909 347.058,418.409 322,380.5C 310.586,358.216 305.919,334.549 308,309.5C 314.879,256.647 341.046,216.481 386.5,189C 402.753,179.54 419.753,171.707 437.5,165.5 Z"/></g>
<g><path style="opacity:1" fill="#777d90" d="M 437.5,165.5 C 437.56,164.957 437.893,164.624 438.5,164.5C 439.817,170.654 439.817,176.654 438.5,182.5C 438.822,176.642 438.489,170.975 437.5,165.5 Z"/></g>
<g><path style="opacity:1" fill="#575c6d" d="M 172.5,274.5 C 171.834,282.483 171.501,290.483 171.5,298.5C 170.111,290.445 170.444,282.445 172.5,274.5 Z"/></g>
</svg>
